<svg width="1024" height="2048" viewBox="0 0 1024 2048" fill="none" xmlns="http://www.w3.org/2000/svg">
  <rect width="1024" height="2048" rx="96" fill="url(#bg)"/>
  <rect x="96" y="128" width="832" height="120" rx="36" fill="rgba(255,255,255,0.18)"/>
  <rect x="96" y="280" width="832" height="1640" rx="72" fill="white"/>
  <text x="176" y="404" fill="#0D3B66" font-family="Inter" font-size="68" font-weight="700">Weather Insights</text>
  <text x="176" y="478" fill="#4A5568" font-family="Inter" font-size="32">Everything that impacts UV exposure</text>
  <line x1="176" y1="520" x2="848" y2="520" stroke="#E2E8F0" stroke-width="2"/>
  <g>
    <rect x="176" y="560" width="672" height="200" rx="40" fill="#0D3B66"/>
    <text x="216" y="650" fill="white" font-family="Inter" font-size="48" font-weight="700">24°C • Feels like 26°C</text>
    <text x="216" y="712" fill="rgba(255,255,255,0.9)" font-family="Inter" font-size="30">Partly cloudy • Humidity 62%</text>
  </g>
  <g>
    <rect x="176" y="792" width="672" height="420" rx="40" fill="#F7FAFC"/>
    <text x="216" y="880" fill="#0D3B66" font-family="Inter" font-size="40" font-weight="700">Hourly UV Forecast</text>
    <g font-family="Inter" font-size="28" fill="#4A5568">
      <text x="216" y="948">10:00</text>
      <text x="346" y="948">11:00</text>
      <text x="476" y="948">12:00</text>
      <text x="606" y="948">13:00</text>
      <text x="736" y="948">14:00</text>
    </g>
    <polyline points="224,1116 356,1068 488,998 620,1028 752,1084" fill="none" stroke="#FF6B35" stroke-width="12" stroke-linecap="round" stroke-linejoin="round"/>
    <g font-family="Inter" font-size="26" font-weight="600" fill="#FF6B35">
      <text x="212" y="1090">5</text>
      <text x="344" y="1038">6</text>
      <text x="476" y="976">7</text>
      <text x="608" y="1006">7</text>
      <text x="740" y="1066">6</text>
    </g>
  </g>
  <g>
    <rect x="176" y="1240" width="312" height="288" rx="36" fill="#FFF4E6"/>
    <text x="220" y="1320" fill="#FF6B35" font-family="Inter" font-size="34" font-weight="700">Sunrise</text>
    <text x="220" y="1372" fill="#0D3B66" font-family="Inter" font-size="48" font-weight="700">06:12</text>
    <text x="220" y="1430" fill="#4A5568" font-family="Inter" font-size="28">Sunset 17:42</text>
  </g>
  <g>
    <rect x="536" y="1240" width="312" height="288" rx="36" fill="#E6FFFA"/>
    <text x="576" y="1320" fill="#2A9D8F" font-family="Inter" font-size="34" font-weight="700">Wind</text>
    <text x="576" y="1372" fill="#0D3B66" font-family="Inter" font-size="48" font-weight="700">14 km/h</text>
    <text x="576" y="1430" fill="#4A5568" font-family="Inter" font-size="28">NE • Breezy</text>
  </g>
  <g>
    <rect x="176" y="1568" width="672" height="260" rx="40" fill="#F7FAFC"/>
    <text x="216" y="1650" fill="#0D3B66" font-family="Inter" font-size="40" font-weight="700">Cloud Cover</text>
    <text x="216" y="1706" fill="#4A5568" font-family="Inter" font-size="30">Protective factor: Moderate</text>
    <rect x="216" y="1746" width="520" height="40" rx="20" fill="#E2E8F0"/>
    <rect x="216" y="1746" width="320" height="40" rx="20" fill="#0D3B66"/>
    <text x="216" y="1816" fill="#4A5568" font-family="Inter" font-size="28">63% cloud coverage • UV reduced slightly</text>
  </g>
  <defs>
    <linearGradient id="bg" x1="512" y1="0" x2="512" y2="2048" gradientUnits="userSpaceOnUse">
      <stop stop-color="#0D3B66"/>
      <stop offset="1" stop-color="#1A5490"/>
    </linearGradient>
  </defs>
</svg>
